<svg xmlns="http://www.w3.org/2000/svg" width="180" height="180" viewBox="0 0 180 180" role="img" aria-label="Dummy QR code">
  <rect width="180" height="180" fill="#ffffff"/>
  <rect x="8" y="8" width="54" height="54" fill="#000000"/>
  <rect x="14" y="14" width="42" height="42" fill="#ffffff"/>
  <rect x="20" y="20" width="30" height="30" fill="#000000"/>

  <rect x="118" y="8" width="54" height="54" fill="#000000"/>
  <rect x="124" y="14" width="42" height="42" fill="#ffffff"/>
  <rect x="130" y="20" width="30" height="30" fill="#000000"/>

  <rect x="8" y="118" width="54" height="54" fill="#000000"/>
  <rect x="14" y="124" width="42" height="42" fill="#ffffff"/>
  <rect x="20" y="130" width="30" height="30" fill="#000000"/>

  <rect x="74" y="74" width="10" height="10" fill="#000000"/>
  <rect x="86" y="74" width="10" height="10" fill="#000000"/>
  <rect x="98" y="74" width="10" height="10" fill="#000000"/>
  <rect x="74" y="86" width="10" height="10" fill="#000000"/>
  <rect x="98" y="86" width="10" height="10" fill="#000000"/>
  <rect x="74" y="98" width="10" height="10" fill="#000000"/>
  <rect x="86" y="98" width="10" height="10" fill="#000000"/>
  <rect x="98" y="98" width="10" height="10" fill="#000000"/>

  <rect x="116" y="76" width="8" height="8" fill="#000000"/>
  <rect x="126" y="86" width="8" height="8" fill="#000000"/>
  <rect x="136" y="96" width="8" height="8" fill="#000000"/>
  <rect x="146" y="106" width="8" height="8" fill="#000000"/>
  <rect x="156" y="116" width="8" height="8" fill="#000000"/>
  <rect x="106" y="116" width="8" height="8" fill="#000000"/>
  <rect x="116" y="126" width="8" height="8" fill="#000000"/>
  <rect x="126" y="136" width="8" height="8" fill="#000000"/>
  <rect x="136" y="146" width="8" height="8" fill="#000000"/>

  <rect x="68" y="116" width="8" height="8" fill="#000000"/>
  <rect x="78" y="126" width="8" height="8" fill="#000000"/>
  <rect x="88" y="136" width="8" height="8" fill="#000000"/>
  <rect x="98" y="146" width="8" height="8" fill="#000000"/>
  <rect x="108" y="156" width="8" height="8" fill="#000000"/>
</svg>
